<svg xmlns="http://www.w3.org/2000/svg" x="0px" y="0px" width="48" height="48" viewBox="0 0 48 48"
style="fill:#1A1A1A;">
<path d="M 10 3 A 2.002 2.002 0 0 0 8 5 L 8 7 L 7.5 7 A 2.5 2.5 0 0 0 7.5 12 L 8 12 L 8 14 L 7.5 14 A 2.5 2.5 0 0 0 7.5 19 L 8 19 L 8 21 L 7.5 21 A 2.5 2.5 0 0 0 7.5 26 L 8 26 L 8 29 L 7.5 29 A 2.5 2.5 0 0 0 7.5 34 L 8 34 L 8 36 L 7.5 36 A 2.5 2.5 0 0 0 7.5 41 L 8 41 L 8 43 A 2.002 2.002 0 0 0 10 45 L 41 45 A 2.00229 2.00229 0 0 0 43 43 L 43 5 A 2.00229 2.00229 0 0 0 41 3 L 10 3 z M 10 5 L 15 5 L 15 43 L 10 43 L 10 41 L 10.5 41 A 2.5 2.5 0 0 0 10.5 36 L 10 36 L 10 34 L 10.5 34 A 2.5 2.5 0 0 0 10.5 29 L 10 29 L 10 26 L 10.5 26 A 2.5 2.5 0 0 0 10.5 21 L 10 21 L 10 19 L 10.5 19 A 2.5 2.5 0 0 0 10.5 14 L 10 14 L 10 12 L 10.5 12 A 2.5 2.5 0 0 0 10.5 7 L 10 7 L 10 5 z M 17 5 L 41 5 L 41 43 L 17 43 L 17 5 z M 7.5 9 L 10.5 9 A 0.5 0.5 0 0 1 10.5 10 L 7.5 10 A 0.5 0.5 0 0 1 7.5 9 z M 21 9 A 1 1 0 0 0 20 10 L 20 18 A 1 1 0 0 0 21 19 L 37 19 A 0.99974 0.99974 0 0 0 38 18 L 38 10 A 0.99974 0.99974 0 0 0 37 9 L 21 9 z M 22 11 L 36 11 L 36 17 L 22 17 L 22 11 z M 7.5 16 L 10.5 16 A 0.5 0.5 0 0 1 10.5 17 L 9.0292969 17 L 7.5 17 A 0.5 0.5 0 0 1 7.5 16 z M 7.5 23 L 9 23 L 10.5 23 A 0.5 0.5 0 0 1 10.5 24 L 7.5 24 A 0.5 0.5 0 0 1 7.5 23 z M 20.958984 23 A 1 1 0 0 0 21 25 L 34 25 A 1 1 0 0 0 34 23 L 21 23 A 1 1 0 0 0 20.958984 23 z M 20.958984 29 A 1 1 0 0 0 21 31 L 30 31 A 1 1 0 0 0 30 29 L 21 29 A 1 1 0 0 0 20.958984 29 z M 7.5 31 L 10.5 31 A 0.5 0.5 0 0 1 10.5 32 L 9.0292969 32 L 7.5 32 A 0.5 0.5 0 0 1 7.5 31 z M 7.5 38 L 9 38 L 10.5 38 A 0.5 0.5 0 0 1 10.5 39 L 7.5 39 A 0.5 0.5 0 0 1 7.5 38 z"></path>
</svg>